<?xml version="1.0" encoding="UTF-8" standalone="no"?>
<!-- Generator: Adobe Illustrator 22.1.0, SVG Export Plug-In . SVG Version: 6.00 Build 0)  -->

<svg
   xmlns:dc="http://purl.org/dc/elements/1.1/"
   xmlns:cc="http://creativecommons.org/ns#"
   xmlns:rdf="http://www.w3.org/1999/02/22-rdf-syntax-ns#"
   xmlns:svg="http://www.w3.org/2000/svg"
   xmlns="http://www.w3.org/2000/svg"
   xmlns:sodipodi="http://sodipodi.sourceforge.net/DTD/sodipodi-0.dtd"
   xmlns:inkscape="http://www.inkscape.org/namespaces/inkscape"
   version="1.1"
   id="Capa_1"
   x="0px"
   y="0px"
   viewBox="0 0 1000 300"
   xml:space="preserve"
   inkscape:version="0.91 r13725"
   sodipodi:docname="Jugaadfest.svg"
   width="1000"
   height="300"
   inkscape:export-filename="/home/opntec/git/jugaadfest-artwork/logo/Jugaadfest.png"
   inkscape:export-xdpi="100"
   inkscape:export-ydpi="100"><metadata
     id="metadata107"><rdf:RDF><cc:Work
         rdf:about=""><dc:format>image/svg+xml</dc:format><dc:type
           rdf:resource="http://purl.org/dc/dcmitype/StillImage" /><dc:title></dc:title></cc:Work></rdf:RDF></metadata><defs
     id="defs105" /><sodipodi:namedview
     pagecolor="#ffffff"
     bordercolor="#666666"
     borderopacity="1"
     objecttolerance="10"
     gridtolerance="10"
     guidetolerance="10"
     inkscape:pageopacity="0"
     inkscape:pageshadow="2"
     inkscape:window-width="1366"
     inkscape:window-height="742"
     id="namedview103"
     showgrid="false"
     inkscape:zoom="0.5"
     inkscape:cx="381.74836"
     inkscape:cy="168.74877"
     inkscape:window-x="0"
     inkscape:window-y="0"
     inkscape:window-maximized="1"
     inkscape:current-layer="Capa_1"><inkscape:grid
       type="xygrid"
       id="grid3434" /></sodipodi:namedview><style
     type="text/css"
     id="style3">
	.st0{fill:#EA5421;}
	.st1{fill:#227FC4;}
	.st2{opacity:0.62;fill:#FF0000;}
	.st3{fill:#00A1E9;}
	.st4{fill:#16AE67;}
	.st5{fill:#90C31F;}
	.st6{fill:none;}
	.st7{fill:#F39800;}
	.st8{fill:#ED1E79;}
	.st9{fill:#662D91;}
	.st10{fill:#E60013;}
	.st11{fill:#BDCA36;}
	.st12{fill:#A42E8C;}
	.st13{fill:#00C9E2;}
</style><g
     transform="translate(-9.0000001,-4.327325)"
     id="g7143"><path
       sodipodi:nodetypes="ssccccccccccccccccccccccs"
       inkscape:connector-curvature="0"
       id="polygon49-6"
       d="m 443.11924,156.62193 -8,0 -22,0 0,44 11.2,0 23.2,-20 -12.4,0 0,-13 10,0 6.6,0 34.4,-41.6 0,-5.4 -25,0 -7,0 -11,0 -12,0 -18,0 0,30 30,0 0,-5 11,0 0,7 -9,0 0,4 z"
       style="fill:#e60013;stroke:none;stroke-width:0.5;stroke-miterlimit:4;stroke-dasharray:none" /><path
       sodipodi:nodetypes="ccccccccscccc"
       class="st7"
       d="m 443.11924,200.62193 11,0 11,0 21,0 0,-74.6 -34.4,41.6 10.4,0 0,1 c 0,0 0,12 -4,12 l -16.6,0 -17.2,20 11.8,0 z"
       id="path53-7"
       inkscape:connector-curvature="0"
       style="fill:#f39800;stroke:none;stroke-width:0.5;stroke-miterlimit:4;stroke-dasharray:none" /><path
       sodipodi:nodetypes="ccccc"
       inkscape:connector-curvature="0"
       id="polygon7"
       d="m 242,213.5322 11.39786,-13.66978 -11.35366,-0.002 -0.0221,1.93371 z"
       style="fill:#ea5421;stroke:none;stroke-width:0.5;stroke-miterlimit:4;stroke-dasharray:none" /><g
       transform="translate(0,-344.0678)"
       id="g9"
       style="stroke:none;stroke-width:0.5;stroke-miterlimit:4;stroke-dasharray:none"><path
         sodipodi:nodetypes="ccccccccc"
         inkscape:connector-curvature="0"
         id="polygon11"
         d="m 142,427 -46,0 0,29 14,0 0,31.7 32,22.2 0,-53.9 0,-3 z"
         style="fill:#227fc4;stroke:none;stroke-width:0.5;stroke-miterlimit:4;stroke-dasharray:none" /><polygon
         class="st2"
         points="110,516 82,516 82,486 50,486 50,545 73,545 82,545 110,545 119,545 142,545 142,509.9 110,487.7 "
         id="polygon13"
         style="opacity:0.62000002;fill:#ff0000;stroke:none;stroke-width:0.5;stroke-miterlimit:4;stroke-dasharray:none" /><polygon
         class="st3"
         points="110,516 82,516 82,486 50,486 50,545 73,545 82,545 110,545 119,545 142,545 142,509.9 110,487.7 "
         id="polygon15"
         style="fill:#00a1e9;stroke:none;stroke-width:0.5;stroke-miterlimit:4;stroke-dasharray:none" /></g><path
       style="fill:#16ae67;stroke:none;stroke-width:0.5;stroke-miterlimit:4;stroke-dasharray:none"
       d="M 183.1875,173.1947 183,120.9322 l -30,0 0,80 4.6,0 z"
       id="polygon19"
       inkscape:connector-curvature="0"
       sodipodi:nodetypes="cccccc" /><path
       sodipodi:nodetypes="ccccc"
       inkscape:connector-curvature="0"
       id="polygon21"
       d="m 201,155.9322 30,-34.7 0,-0.3 -30,0 z"
       style="fill:#16ae67;stroke:none;stroke-width:0.5;stroke-miterlimit:4;stroke-dasharray:none" /><path
       style="fill:#ffd700;stroke:none;stroke-width:0.5;stroke-miterlimit:4;stroke-dasharray:none"
       d="m 217,200.9322 14,0 0,-79.7 -30,34.7 0.0195,18.02344 -17.82812,-0.0469 0,-0.8 -25.59141,27.82344 13.4,0 0,0 z"
       id="polygon25"
       inkscape:connector-curvature="0"
       sodipodi:nodetypes="ccccccccccc" /><path
       style="fill:none;stroke:none;stroke-width:0.5;stroke-miterlimit:4;stroke-dasharray:none"
       inkscape:connector-curvature="0"
       id="path29"
       d="m 280,151.8322 -9,0 0,9.1 10,0 c 4,0 3,-5 3,-5 0,-5 -4,-4.1 -4,-4.1 z"
       class="st6" /><path
       sodipodi:nodetypes="ccccccccccccccccsc"
       style="fill:#ea5421;stroke:none;stroke-width:0.5;stroke-miterlimit:4;stroke-dasharray:none"
       inkscape:connector-curvature="0"
       id="path31"
       d="m 318,120.9322 -32,0 0.0331,7.46334 C 284.67665,124.02497 279,120.9322 279,120.9322 l -8,0 -8,0 -21,0 -0.0221,69.98917 18.80079,0.0324 L 318,122.3322 Z m -37,40 -16.28549,0.0161 -0.0161,-14.90172 18.9136,-0.0742 c 0,0 3.20178,0.39713 3.20178,5.39713 0,0 0.76302,9.22559 -3.23173,9.43035 z"
       class="st0" /><path
       sodipodi:nodetypes="cccccccccsccccccccc"
       style="fill:#f39800;stroke:none;stroke-width:0.5;stroke-miterlimit:4;stroke-dasharray:none"
       inkscape:connector-curvature="0"
       id="path35"
       d="m 242,229.81608 44,0 2,0 30,0 0,-107.48388 -57.24127,68.60574 8.24127,-0.006 2,0 1,0 8,0 c 4,0 8,-4 8,-4 l 0,10.88388 0,6 -17,0 0.0434,-4.05792 -17.6555,0.1144 -11.3445,13.60172 -0.0434,10.3418 z"
       class="st7" /><g
       transform="translate(12,-344.0678)"
       id="g37"
       style="stroke:none;stroke-width:0.5;stroke-miterlimit:4;stroke-dasharray:none"><path
         class="st6"
         d="m 347,512 0,5 7,0 c 4,0 4,-4 4,-4 l 0,-1 -9,0 -2,0 z"
         id="path39"
         inkscape:connector-curvature="0"
         style="fill:none;stroke:none;stroke-width:0.5;stroke-miterlimit:4;stroke-dasharray:none" /><path
         sodipodi:nodetypes="ccccccccccccccccccccsccccc"
         class="st8"
         d="m 317,495 30,0 0,-5 11,0 0,7 -9,0 0,4 -2,0 -8,0 -22,0 0,44 23,0 7,0 11,0 11,0 21,0 0,-51.9 -73,-15.7 z m 49,18 c 0,0 -0.49487,12 -4,12 l -23,0 0,-13 10,0 17,0 z"
         id="path41"
         inkscape:connector-curvature="0"
         style="fill:#ed1e79;stroke:none;stroke-width:0.5;stroke-miterlimit:4;stroke-dasharray:none" /><polygon
         class="st2"
         points="317,477.4 390,493.1 390,465 365,465 358,465 347,465 335,465 317,465 "
         id="polygon43"
         style="opacity:0.62000002;fill:#ff0000;stroke:none;stroke-width:0.5;stroke-miterlimit:4;stroke-dasharray:none" /><polygon
         class="st9"
         points="317,477.4 390,493.1 390,465 365,465 358,465 347,465 335,465 317,465 "
         id="polygon45"
         style="fill:#662d91;stroke:none;stroke-width:0.5;stroke-miterlimit:4;stroke-dasharray:none" /></g><polygon
       transform="translate(16,-344.0678)"
       class="st6"
       points="431.4,517 435.6,512 429,512 427,512 427,517 "
       id="polygon47"
       style="fill:none;stroke:none;stroke-width:0.5;stroke-miterlimit:4;stroke-dasharray:none" /><path
       class="st6"
       d="m 543,150.9322 0,-1 -14,0 0,20 7,0 c 0.8,0 1.5,-0.1 2.1,-0.3 l 4.8,-6.6 c 0.1,-0.7 0.1,-1.1 0.1,-1.1 l 0,-11 z"
       id="path55"
       inkscape:connector-curvature="0"
       style="fill:none;stroke:none;stroke-width:0.5;stroke-miterlimit:4;stroke-dasharray:none" /><path
       sodipodi:nodetypes="ccccccccccccccccc"
       class="st11"
       d="m 541.82071,169.9322 -18.82071,0 0,-26 24,0 0,1 0,17 c 6.87302,-8.6546 20.55263,-31.01705 29,-44.3 l 0,-34.7 -29.25095,-0.09363 0,37.90637 L 529,120.9322 l -15,0 -17,0 0,80 17,0 1.3,0 c 7.37566,-8.77758 21.80881,-25.23502 26.52071,-31 z"
       id="path57"
       inkscape:connector-curvature="0"
       style="fill:#bdca36;stroke:none;stroke-width:0.5;stroke-miterlimit:4;stroke-dasharray:none" /><path
       sodipodi:nodetypes="cccccccccccccc"
       class="st12"
       d="m 535,200.9322 c 0,0 0.8,0.1 1.9,0 l 0.1,0 3.42548,0 c 2.7,-0.2 6.42937,-6.60267 6.42937,-12.20267 l 0.006,12.34598 29.1394,-0.14331 0,-83.3 c -10.08457,14.58315 -19.56548,28.58311 -29.00176,41.91458 0.002,2.45322 -0.0396,5.26287 -0.11831,10.38192 -2.55696,0.0465 -4.87993,-0.0684 -7.261,-0.003 -7.77643,10.68497 -15.61807,20.99172 -24.31893,31.00694 l 13.7,0 z"
       id="path61"
       inkscape:connector-curvature="0"
       style="fill:#a42e8c;stroke:none;stroke-width:0.5;stroke-miterlimit:4;stroke-dasharray:none" /><path
       style="fill:#227fc4;stroke:none;stroke-width:0.5;stroke-miterlimit:4;stroke-dasharray:none"
       d="m 645,82.9322 -27,0 0,86.1 77,-34.2 0,-3.9 -45,0 0,-19 59,0 0,-29 -59,0 z"
       id="polygon65"
       inkscape:connector-curvature="0"
       sodipodi:nodetypes="ccccccccccc" /><path
       style="fill:#00a1e9;stroke:none;stroke-width:0.5;stroke-miterlimit:4;stroke-dasharray:none"
       d="m 650,200.9322 0,-41 45,0 0,-25.1 -77,34.2 0,31.9 z"
       id="polygon69"
       inkscape:connector-curvature="0"
       sodipodi:nodetypes="ccccccc" /><rect
       style="fill:none;stroke:none;stroke-width:0.5;stroke-miterlimit:4;stroke-dasharray:none"
       id="rect73"
       height="4"
       width="16"
       class="st6"
       y="144.93221"
       x="733" /><path
       style="fill:#90c31f;stroke:none;stroke-width:0.5;stroke-miterlimit:4;stroke-dasharray:none"
       inkscape:connector-curvature="0"
       id="path75"
       d="m 704,200.9322 25,0 4,0 18,0 11,0 18,0 0,-31 -29,0 0,7 -18,0 0,-8 16,0 0,-5 29,0 0,-20.4 -74,-4 z m 29,-58 22,0 0,10 -22,0 z"
       class="st5"
       sodipodi:nodetypes="cccccccccccccccccccccc" /><path
       style="fill:#16ae67;stroke:none;stroke-width:0.5;stroke-miterlimit:4;stroke-dasharray:none"
       d="m 778,120.9322 -16,0 -13,0 -16,0 -4,0 -25,0 -0.0468,18.73408 32.20262,3.25377 18.84578,0.11341 -0.0271,1.5714 L 778,147.5322 Z"
       id="polygon79"
       inkscape:connector-curvature="0"
       sodipodi:nodetypes="cccccccccccc" /><path
       style="fill:none;stroke:none;stroke-width:0.5;stroke-miterlimit:4;stroke-dasharray:none"
       inkscape:connector-curvature="0"
       id="path83"
       d="m 826,144.9322 -3,0 c 0,0 -2,0 -2,3 0,0 0,2 2,2 l 7,0 24.7,3.9 -2.4,-2.4 -22.3,-3.5 c 0,0 0,-3 -4,-3 z"
       class="st6" /><path
       style="fill:#f35100;fill-opacity:1;stroke:none;stroke-width:0.5;stroke-miterlimit:4;stroke-dasharray:none"
       inkscape:connector-curvature="0"
       id="path85"
       d="m 830,151.9322 -7,0 c -2,0 -2,-4 -2,-4 0,-3 2,-5 2,-5 l 3,0 c 4,0 4,3 4,3 l 22.2,3.5 -31.1,-28.5 -0.1,0 -0.1,0 -31.9,0 0,44 32,5 7,0 c 2,0 2,4 2,4 0,3 -2,5 -2,5 l -3,0 c -4,0 -4,-3 -4,-3 l -32,-5 0,30 29,0 3,0 9,0 6,0 26,0 0,-38 -7.3,-7.2 z"
       class="st7"
       sodipodi:nodetypes="csccsccccccccsccsccccccccccc" /><polygon
       style="opacity:0.62000002;fill:#ff0000;stroke:none;stroke-width:0.5;stroke-miterlimit:4;stroke-dasharray:none"
       id="polygon87"
       points="868,505 868,499 860.7,497.9 "
       class="st2"
       transform="translate(-6,-342.0678)" /><polygon
       style="fill:#ffe000;fill-opacity:1;stroke:none;stroke-width:0.5;stroke-miterlimit:4;stroke-dasharray:none"
       id="polygon89"
       points="868,505 868,499 860.7,497.9 "
       class="st0"
       transform="translate(-6,-342.0678)" /><path
       style="fill:#ffe000;fill-opacity:1;stroke:none;stroke-width:0.5;stroke-miterlimit:4;stroke-dasharray:none"
       d="m 830.02926,120.94976 -8.9,0 28.66687,28.11652 12.23313,1.88348 0,-30 -26,0 z"
       id="polygon93"
       inkscape:connector-curvature="0"
       sodipodi:nodetypes="ccccccc" /><g
       transform="translate(-2,0)"
       id="g7139"><path
         sodipodi:nodetypes="ccccccccccccccc"
         inkscape:connector-curvature="0"
         id="polygon97"
         d="m 943,169.9322 -26,4.6 0,-25.6 16.2,0 -43.15,-53.25 -5.05,-5.75 0,31 -13,0 0,28 13,0 0,38 0,14 0,9 63,-8 z"
         style="fill:#00c9e2;stroke:none;stroke-width:0.5;stroke-miterlimit:4;stroke-dasharray:none" /><path
         sodipodi:nodetypes="ccccccc"
         inkscape:connector-curvature="0"
         id="polygon101"
         d="m 933.2,148.9322 10.8,0 0,-28 -27,0 0,-31 -31.93728,0.0878 z"
         style="fill:#ed1e79;stroke:none;stroke-width:0.5;stroke-miterlimit:4;stroke-dasharray:none" /></g></g></svg>