<?xml version="1.0" encoding="UTF-8" standalone="no"?>
<!-- Generator: Adobe Illustrator 22.1.0, SVG Export Plug-In . SVG Version: 6.00 Build 0)  -->

<svg
   xmlns:dc="http://purl.org/dc/elements/1.1/"
   xmlns:cc="http://creativecommons.org/ns#"
   xmlns:rdf="http://www.w3.org/1999/02/22-rdf-syntax-ns#"
   xmlns:svg="http://www.w3.org/2000/svg"
   xmlns="http://www.w3.org/2000/svg"
   xmlns:sodipodi="http://sodipodi.sourceforge.net/DTD/sodipodi-0.dtd"
   xmlns:inkscape="http://www.inkscape.org/namespaces/inkscape"
   version="1.1"
   id="Capa_1"
   x="0px"
   y="0px"
   viewBox="0 0 1000 300"
   xml:space="preserve"
   inkscape:version="0.91 r13725"
   sodipodi:docname="Jugaadfest.svg"
   width="1000"
   height="300"><metadata
     id="metadata107"><rdf:RDF><cc:Work
         rdf:about=""><dc:format>image/svg+xml</dc:format><dc:type
           rdf:resource="http://purl.org/dc/dcmitype/StillImage" /><dc:title></dc:title></cc:Work></rdf:RDF></metadata><defs
     id="defs105" /><sodipodi:namedview
     pagecolor="#ffffff"
     bordercolor="#666666"
     borderopacity="1"
     objecttolerance="10"
     gridtolerance="10"
     guidetolerance="10"
     inkscape:pageopacity="0"
     inkscape:pageshadow="2"
     inkscape:window-width="1366"
     inkscape:window-height="742"
     id="namedview103"
     showgrid="false"
     inkscape:zoom="0.472"
     inkscape:cx="355.84812"
     inkscape:cy="338.58118"
     inkscape:window-x="0"
     inkscape:window-y="0"
     inkscape:window-maximized="1"
     inkscape:current-layer="Capa_1" /><style
     type="text/css"
     id="style3">
	.st0{fill:#EA5421;}
	.st1{fill:#227FC4;}
	.st2{opacity:0.62;fill:#FF0000;}
	.st3{fill:#00A1E9;}
	.st4{fill:#16AE67;}
	.st5{fill:#90C31F;}
	.st6{fill:none;}
	.st7{fill:#F39800;}
	.st8{fill:#ED1E79;}
	.st9{fill:#662D91;}
	.st10{fill:#E60013;}
	.st11{fill:#BDCA36;}
	.st12{fill:#A42E8C;}
	.st13{fill:#00C9E2;}
</style><g
     id="g5"
     transform="translate(0,-344.0678)"><polygon
       class="st0"
       points="234,537 234,541 234,557.6 251.2,537 "
       id="polygon7"
       style="fill:#ea5421" /><g
       id="g9"><polygon
         class="st1"
         points="96,462 110,462 110,487.7 142,509.9 142,462 142,459 142,433 96,433 "
         id="polygon11"
         style="fill:#227fc4" /><polygon
         class="st2"
         points="73,545 82,545 110,545 119,545 142,545 142,509.9 110,487.7 110,516 82,516 82,486 50,486 50,545 "
         id="polygon13"
         style="opacity:0.62000002;fill:#ff0000" /><polygon
         class="st3"
         points="73,545 82,545 110,545 119,545 142,545 142,509.9 110,487.7 110,516 82,516 82,486 50,486 50,545 "
         id="polygon15"
         style="fill:#00a1e9" /></g><g
       id="g17"><polygon
         class="st4"
         points="181,515.2 181,465 149,465 149,545 153.6,545 "
         id="polygon19"
         style="fill:#16ae67" /><polygon
         class="st4"
         points="227,465 195,465 195,500 227,465.3 "
         id="polygon21"
         style="fill:#16ae67" /><polygon
         class="st2"
         points="227,465.3 195,500 195,516 181,516 181,515.2 153.6,545 167,545 167,545 213,545 213,545 227,545 "
         id="polygon23"
         style="opacity:0.62000002;fill:#ff0000" /><polygon
         class="st5"
         points="227,465.3 195,500 195,516 181,516 181,515.2 153.6,545 167,545 167,545 213,545 213,545 227,545 "
         id="polygon25"
         style="fill:#90c31f" /></g><g
       id="g27"><path
         class="st6"
         d="m 272,495.9 -9,0 0,9.1 10,0 c 4,0 3,-5 3,-5 0,-5 -4,-4.1 -4,-4.1 z"
         id="path29"
         inkscape:connector-curvature="0"
         style="fill:none" /><path
         class="st0"
         d="m 310,465 -32,0 0,2.6 c -2.9,-2.6 -7,-2.6 -7,-2.6 l -8,0 -8,0 -21,0 0,70 18.8,0 57.2,-68.6 0,-1.4 z m -37,40 -10,0 0,-9.1 9,0 c 0,0 4,-0.9 4,4.1 0,0 1,5 -3,5 z"
         id="path31"
         inkscape:connector-curvature="0"
         style="fill:#ea5421" /><path
         class="st2"
         d="m 234,567 44,0 2,0 30,0 0,-100.6 -57.2,68.6 8.2,0 2,0 1,0 8,0 c 4,0 4,-4 4,-4 l 0,6 0,4 -13,0 0,-4 -11.8,0 -17.2,20.6 0,3.4 0,6 z"
         id="path33"
         inkscape:connector-curvature="0"
         style="opacity:0.62000002;fill:#ff0000" /><path
         class="st7"
         d="m 234,567 44,0 2,0 30,0 0,-100.6 -57.2,68.6 8.2,0 2,0 1,0 8,0 c 4,0 4,-4 4,-4 l 0,6 0,4 -13,0 0,-4 -11.8,0 -17.2,20.6 0,3.4 0,6 z"
         id="path35"
         inkscape:connector-curvature="0"
         style="fill:#f39800" /></g><g
       id="g37"><path
         class="st6"
         d="m 347,512 0,5 7,0 c 4,0 4,-4 4,-4 l 0,-1 -9,0 -2,0 z"
         id="path39"
         inkscape:connector-curvature="0"
         style="fill:none" /><path
         class="st8"
         d="m 317,495 30,0 0,-5 11,0 0,3 -9,0 0,4 -2,0 -8,0 -22,0 0,48 23,0 7,0 11,0 11,0 21,0 0,-51.9 -73,-15.7 0,17.6 z m 41,18 c 0,0 0,4 -4,4 l -7,0 0,-5 2,0 9,0 0,1 z"
         id="path41"
         inkscape:connector-curvature="0"
         style="fill:#ed1e79" /><polygon
         class="st2"
         points="317,465 317,477.4 390,493.1 390,465 365,465 358,465 347,465 335,465 "
         id="polygon43"
         style="opacity:0.62000002;fill:#ff0000" /><polygon
         class="st9"
         points="317,465 317,477.4 390,493.1 390,465 365,465 358,465 347,465 335,465 "
         id="polygon45"
         style="fill:#662d91" /></g><polygon
       class="st6"
       points="429,512 427,512 427,517 431.4,517 435.6,512 "
       id="polygon47"
       style="fill:none" /><polygon
       class="st10"
       points="470,470.4 470,465 445,465 438,465 427,465 415,465 397,465 397,495 427,495 427,490 438,490 438,493 429,493 429,497 427,497 419,497 397,497 397,545 408.2,545 431.4,517 427,517 427,512 429,512 435.6,512 "
       id="polygon49"
       style="fill:#e60013" /><path
       class="st7"
       d="m 427,545 11,0 11,0 21,0 0,-74.6 -34.4,41.6 2.4,0 0,1 c 0,0 0,4 -4,4 l -2.6,0 -23.2,28 11.8,0 7,0 z"
       id="path51"
       inkscape:connector-curvature="0"
       style="fill:#f39800" /><path
       class="st7"
       d="m 427,545 11,0 11,0 21,0 0,-74.6 -34.4,41.6 2.4,0 0,1 c 0,0 0,4 -4,4 l -2.6,0 -23.2,28 11.8,0 7,0 z"
       id="path53"
       inkscape:connector-curvature="0"
       style="fill:#f39800" /><path
       class="st6"
       d="m 523,495 0,-1 -14,0 0,20 7,0 c 0.8,0 1.5,-0.1 2.1,-0.3 l 4.8,-6.6 C 523,506.4 523,506 523,506 l 0,-11 z"
       id="path55"
       inkscape:connector-curvature="0"
       style="fill:none" /><path
       class="st11"
       d="m 516,514 -7,0 0,-20 14,0 0,1 0,11 c 0,0 0,0.5 -0.1,1.1 l 33.1,-45.4 0,-28.7 -32,0 0,32 -15,0 -15,0 -17,0 0,80 17,0 1.3,0 22.8,-31.3 c -0.6,0.2 -1.3,0.3 -2.1,0.3 z"
       id="path57"
       inkscape:connector-curvature="0"
       style="fill:#bdca36" /><path
       class="st2"
       d="m 515,545 c 0,0 0.8,0.1 1.9,0 l 0.1,0 0,0 c 2.7,-0.2 7,-1.4 7,-7 l 0,6 32,0 0,-82.3 -33.1,45.4 c -0.3,1.9 -1.2,5.5 -4.8,6.6 l -22.8,31.3 13.7,0 6,0 z"
       id="path59"
       inkscape:connector-curvature="0"
       style="opacity:0.62000002;fill:#ff0000" /><path
       class="st12"
       d="m 515,545 c 0,0 0.8,0.1 1.9,0 l 0.1,0 0,0 c 2.7,-0.2 7,-1.4 7,-7 l 0,6 32,0 0,-82.3 -33.1,45.4 c -0.3,1.9 -1.2,5.5 -4.8,6.6 l -22.8,31.3 13.7,0 6,0 z"
       id="path61"
       inkscape:connector-curvature="0"
       style="fill:#a42e8c" /><g
       id="g63"><polygon
         class="st1"
         points="709,433 650,433 645,433 618,433 618,515.1 695,480.9 695,477 650,477 650,462 709,462 "
         id="polygon65"
         style="fill:#227fc4" /><polygon
         class="st2"
         points="618,515.1 618,545 650,545 650,506 695,506 695,480.9 "
         id="polygon67"
         style="opacity:0.62000002;fill:#ff0000" /><polygon
         class="st3"
         points="618,515.1 618,545 650,545 650,506 695,506 695,480.9 "
         id="polygon69"
         style="fill:#00a1e9" /></g><g
       id="g71"><rect
         x="743"
         y="489"
         class="st6"
         width="16"
         height="4"
         id="rect73"
         style="fill:none" /><path
         class="st5"
         d="m 714,545 25,0 4,0 18,0 11,0 18,0 0,-33 -29,0 0,7 -18,0 0,-4 16,0 0,-5 29,0 0,-18.4 -74,-8 0,61.4 z m 29,-56 16,0 0,4 -16,0 0,-4 z"
         id="path75"
         inkscape:connector-curvature="0"
         style="fill:#90c31f" /><polygon
         class="st2"
         points="714,465 714,483.5 788,491.6 788,465 772,465 759,465 743,465 739,465 "
         id="polygon77"
         style="opacity:0.62000002;fill:#ff0000" /><polygon
         class="st4"
         points="714,465 714,483.5 788,491.6 788,465 772,465 759,465 743,465 739,465 "
         id="polygon79"
         style="fill:#16ae67" /></g><g
       id="g81"><path
         class="st6"
         d="m 832,489 -3,0 c 0,0 -2,0 -2,3 0,0 0,2 2,2 l 7,0 24.7,3.9 -2.4,-2.4 L 836,492 c 0,0 0,-3 -4,-3 z"
         id="path83"
         inkscape:connector-curvature="0"
         style="fill:none" /><path
         class="st7"
         d="m 836,494 -7,0 c -2,0 -2,-2 -2,-2 0,-3 2,-3 2,-3 l 3,0 c 4,0 4,3 4,3 l 22.2,3.5 -31.1,-30.5 -0.1,0 -0.1,0 -31.9,0 0,46 32,5 7,0 c 2,0 2,2 2,2 0,3 -2,3 -2,3 l -3,0 c -4,0 -4,-3 -4,-3 l -32,-5 0,32 29,0 3,0 9,0 6,0 26,0 0,-40 -7.3,-7.2 L 836,494 Z"
         id="path85"
         inkscape:connector-curvature="0"
         style="fill:#f39800" /><polygon
         class="st2"
         points="868,505 868,499 860.7,497.9 "
         id="polygon87"
         style="opacity:0.62000002;fill:#ff0000" /><polygon
         class="st0"
         points="868,505 868,499 860.7,497.9 "
         id="polygon89"
         style="fill:#ea5421" /><polygon
         class="st2"
         points="827.1,465 858.2,495.5 868,497 868,465 842,465 836,465 "
         id="polygon91"
         style="opacity:0.62000002;fill:#ff0000" /><polygon
         class="st0"
         points="827.1,465 858.2,495.5 868,497 868,465 842,465 836,465 "
         id="polygon93"
         style="fill:#ea5421" /></g><g
       id="g95"><polygon
         class="st13"
         points="874,465 874,493 887,493 887,531 887,545 887,554 950,546 945,514 919,518.6 919,493 935.2,493 891.3,440 887,440 887,465 "
         id="polygon97"
         style="fill:#00c9e2" /><polygon
         class="st2"
         points="891.3,440 935.2,493 946,493 946,465 919,465 919,440 "
         id="polygon99"
         style="opacity:0.62000002;fill:#ff0000" /><polygon
         class="st8"
         points="891.3,440 935.2,493 946,493 946,465 919,465 919,440 "
         id="polygon101"
         style="fill:#ed1e79" /></g></g></svg>