<?xml version="1.0" encoding="UTF-8" standalone="no"?>
<!-- Created with Inkscape (http://www.inkscape.org/) -->

<svg
   xmlns:dc="http://purl.org/dc/elements/1.1/"
   xmlns:cc="http://creativecommons.org/ns#"
   xmlns:rdf="http://www.w3.org/1999/02/22-rdf-syntax-ns#"
   xmlns:svg="http://www.w3.org/2000/svg"
   xmlns="http://www.w3.org/2000/svg"
   xmlns:sodipodi="http://sodipodi.sourceforge.net/DTD/sodipodi-0.dtd"
   xmlns:inkscape="http://www.inkscape.org/namespaces/inkscape"
   width="87mm"
   height="57mm"
   viewBox="0 0 308.26773 201.9685"
   id="svg10493"
   version="1.1"
   inkscape:version="0.91 r13725"
   sodipodi:docname="Jugaadfest-Sticker.svg"
   inkscape:export-filename="/home/opntec/git/jugaadfest-artwork/Sticker/Jugaadfest-Sticker.png"
   inkscape:export-xdpi="299.89825"
   inkscape:export-ydpi="299.89825">
  <defs
     id="defs10495" />
  <sodipodi:namedview
     id="base"
     pagecolor="#ffffff"
     bordercolor="#666666"
     borderopacity="1.0"
     inkscape:pageopacity="0.0"
     inkscape:pageshadow="2"
     inkscape:zoom="1.4"
     inkscape:cx="134.37262"
     inkscape:cy="126.7786"
     inkscape:document-units="px"
     inkscape:current-layer="layer1"
     showgrid="false"
     fit-margin-top="0"
     fit-margin-left="0"
     fit-margin-right="0"
     fit-margin-bottom="0"
     inkscape:window-width="1366"
     inkscape:window-height="742"
     inkscape:window-x="0"
     inkscape:window-y="0"
     inkscape:window-maximized="1" />
  <metadata
     id="metadata10498">
    <rdf:RDF>
      <cc:Work
         rdf:about="">
        <dc:format>image/svg+xml</dc:format>
        <dc:type
           rdf:resource="http://purl.org/dc/dcmitype/StillImage" />
        <dc:title></dc:title>
      </cc:Work>
    </rdf:RDF>
  </metadata>
  <g
     inkscape:label="Layer 1"
     inkscape:groupmode="layer"
     id="layer1"
     transform="translate(726.18137,-838.12173)">
    <rect
       style="fill:#fffa9b;fill-opacity:1;fill-rule:evenodd;stroke:#ff0000;stroke-width:0.61317831;stroke-miterlimit:4;stroke-dasharray:none;stroke-opacity:1"
       id="rect3487"
       width="307.65454"
       height="201.35533"
       x="-725.87476"
       y="838.42834" />
    <g
       id="g4326"
       transform="matrix(0.98611656,0,0,0.98611656,-7.9419614,11.065784)">
      <g
         transform="matrix(1.0539874,0,0,1.0539874,-2175.4148,905.51424)"
         id="g7923">
        <path
           style="fill:#e60013;stroke:none;stroke-width:0.5;stroke-miterlimit:4;stroke-dasharray:none"
           d="m 1585.8242,1.3583706 -3.9708,0 -10.9197,0 0,21.8393944 5.5591,0 11.5153,-9.926998 -6.1547,0 0,-6.4525478 4.9635,0 3.2759,0 17.0744,-20.6481542 0,-2.68029 -12.4087,0 -3.4745,0 -5.4598,0 -5.9562,0 -8.9343,0 0,14.8904964 14.8905,0 0,-2.4817494 5.4598,0 0,3.47444911 -4.4671,0 0,1.98539949 z"
           id="polygon49-6"
           inkscape:connector-curvature="0"
           sodipodi:nodetypes="ssccccccccccccccccccccccs" />
        <path
           style="fill:#f39800;stroke:none;stroke-width:0.5;stroke-miterlimit:4;stroke-dasharray:none"
           inkscape:connector-curvature="0"
           id="path53-7"
           d="m 1585.8242,23.197765 5.4598,0 5.4599,0 10.4233,0 0,-37.0277 -17.0744,20.6481542 5.162,0 0,0.4963498 c 0,0 0,5.956198 -1.9854,5.956198 l -8.2394,0 -8.5372,9.926998 5.8569,0 z"
           class="st7"
           sodipodi:nodetypes="ccccccccscccc" />
        <path
           style="fill:#ea5421;stroke:none;stroke-width:0.5;stroke-miterlimit:4;stroke-dasharray:none"
           d="m 1485.9987,29.605776 5.6573,-6.784994 -5.6354,-9.93e-4 -0.011,0.959797 z"
           id="polygon7"
           inkscape:connector-curvature="0"
           sodipodi:nodetypes="ccccc" />
        <g
           style="stroke:none;stroke-width:0.5;stroke-miterlimit:4;stroke-dasharray:none"
           id="g9"
           transform="matrix(0.49634987,0,0,0.49634987,1365.882,-247.15891)">
          <path
             style="fill:#227fc4;stroke:none;stroke-width:0.5;stroke-miterlimit:4;stroke-dasharray:none"
             d="m 142,427 -46,0 0,29 14,0 0,31.7 32,22.2 0,-53.9 0,-3 z"
             id="polygon11"
             inkscape:connector-curvature="0"
             sodipodi:nodetypes="ccccccccc" />
          <polygon
             style="opacity:0.62000002;fill:#ff0000;stroke:none;stroke-width:0.5;stroke-miterlimit:4;stroke-dasharray:none"
             id="polygon13"
             points="119,545 142,545 142,509.9 110,487.7 110,516 82,516 82,486 50,486 50,545 73,545 82,545 110,545 "
             class="st2" />
          <polygon
             style="fill:#00a1e9;stroke:none;stroke-width:0.5;stroke-miterlimit:4;stroke-dasharray:none"
             id="polygon15"
             points="119,545 142,545 142,509.9 110,487.7 110,516 82,516 82,486 50,486 50,545 73,545 82,545 110,545 "
             class="st3" />
        </g>
        <path
           sodipodi:nodetypes="cccccc"
           inkscape:connector-curvature="0"
           id="polygon19"
           d="m 1456.8071,9.5842628 -0.093,-25.9404848 -14.8905,0 0,39.707989 2.2832,0 z"
           style="fill:#16ae67;stroke:none;stroke-width:0.5;stroke-miterlimit:4;stroke-dasharray:none" />
        <path
           style="fill:#16ae67;stroke:none;stroke-width:0.5;stroke-miterlimit:4;stroke-dasharray:none"
           d="m 1465.6483,1.0160232 14.8905,-17.2233402 0,-0.148905 -14.8905,0 z"
           id="polygon21"
           inkscape:connector-curvature="0"
           sodipodi:nodetypes="ccccc" />
        <path
           sodipodi:nodetypes="ccccccccccc"
           inkscape:connector-curvature="0"
           id="polygon25"
           d="m 1473.5899,23.351767 6.9489,0 0,-39.559084 -14.8905,17.2233402 0.01,8.9459321 -8.849,-0.023279 0,-0.3970799 -12.7023,13.8101606 6.6511,0 0,0 z"
           style="fill:#ffd700;stroke:none;stroke-width:0.5;stroke-miterlimit:4;stroke-dasharray:none" />
        <path
           class="st6"
           d="m 1504.86,-1.0190113 -4.4672,0 0,4.5167838 4.9635,0 c 1.9854,0 1.4891,-2.4817493 1.4891,-2.4817493 0,-2.4817494 -1.9854,-2.0350345 -1.9854,-2.0350345 z"
           id="path29"
           inkscape:connector-curvature="0"
           style="fill:none;stroke:none;stroke-width:0.5;stroke-miterlimit:4;stroke-dasharray:none" />
        <path
           class="st0"
           d="m 1523.7213,-16.356222 -15.8832,0 0.016,3.704428 c -0.6733,-2.169332 -3.4909,-3.704428 -3.4909,-3.704428 l -3.9708,0 -3.9708,0 -10.4233,0 -0.011,34.739115 9.3318,0.01608 28.4018,-34.060307 z m -18.365,19.8539945 -8.0833,0.00799 -0.01,-7.3964668 9.3878,-0.036829 c 0,0 1.5892,0.1971155 1.5892,2.6788648 0,0 0.3787,4.5791204 -1.6041,4.680753 z"
           id="path31"
           inkscape:connector-curvature="0"
           style="fill:#ea5421;stroke:none;stroke-width:0.5;stroke-miterlimit:4;stroke-dasharray:none"
           sodipodi:nodetypes="ccccccccccccccccsc" />
        <path
           class="st7"
           d="m 1485.9987,37.688277 21.8394,0 0.9927,0 14.8905,0 0,-53.349609 -28.4117,34.05245 4.0905,-0.003 0.9927,0 0.4964,0 3.9708,0 c 1.9854,0 3.9708,-1.9854 3.9708,-1.9854 l 0,5.402213 0,2.978099 -8.438,0 0.022,-2.014148 -8.7633,0.05678 -5.6309,6.751212 -0.021,5.133151 z"
           id="path35"
           inkscape:connector-curvature="0"
           style="fill:#f39800;stroke:none;stroke-width:0.5;stroke-miterlimit:4;stroke-dasharray:none"
           sodipodi:nodetypes="cccccccccsccccccccc" />
        <g
           style="stroke:none;stroke-width:0.5;stroke-miterlimit:4;stroke-dasharray:none"
           id="g37"
           transform="matrix(0.49634987,0,0,0.49634987,1371.8382,-247.15891)">
          <path
             style="fill:none;stroke:none;stroke-width:0.5;stroke-miterlimit:4;stroke-dasharray:none"
             inkscape:connector-curvature="0"
             id="path39"
             d="m 347,512 0,5 7,0 c 4,0 4,-4 4,-4 l 0,-1 -9,0 -2,0 z"
             class="st6" />
          <path
             style="fill:#ed1e79;stroke:none;stroke-width:0.5;stroke-miterlimit:4;stroke-dasharray:none"
             inkscape:connector-curvature="0"
             id="path41"
             d="m 317,495 30,0 0,-5 11,0 0,7 -9,0 0,4 -2,0 -8,0 -22,0 0,44 23,0 7,0 11,0 11,0 21,0 0,-51.9 -73,-15.7 z m 49,18 c 0,0 -0.49487,12 -4,12 l -23,0 0,-13 10,0 17,0 z"
             class="st8"
             sodipodi:nodetypes="ccccccccccccccccccccsccccc" />
          <polygon
             style="opacity:0.62000002;fill:#ff0000;stroke:none;stroke-width:0.5;stroke-miterlimit:4;stroke-dasharray:none"
             id="polygon43"
             points="358,465 347,465 335,465 317,465 317,477.4 390,493.1 390,465 365,465 "
             class="st2" />
          <polygon
             style="fill:#662d91;stroke:none;stroke-width:0.5;stroke-miterlimit:4;stroke-dasharray:none"
             id="polygon45"
             points="358,465 347,465 335,465 317,465 317,477.4 390,493.1 390,465 365,465 "
             class="st9" />
        </g>
        <polygon
           style="fill:none;stroke:none;stroke-width:0.5;stroke-miterlimit:4;stroke-dasharray:none"
           id="polygon47"
           points="435.6,512 429,512 427,512 427,517 431.4,517 "
           class="st6"
           transform="matrix(0.49634987,0,0,0.49634987,1373.8236,-247.15891)" />
        <path
           style="fill:none;stroke:none;stroke-width:0.5;stroke-miterlimit:4;stroke-dasharray:none"
           inkscape:connector-curvature="0"
           id="path55"
           d="m 1635.4,-1.4657262 0,-0.4963498 -6.9489,0 0,9.9269974 3.4744,0 c 0.3971,0 0.7446,-0.049635 1.0424,-0.148905 l 2.3824,-3.2759091 c 0.05,-0.3474449 0.05,-0.5459849 0.05,-0.5459849 l 0,-5.4598486 z"
           class="st6" />
        <path
           style="fill:#bdca36;stroke:none;stroke-width:0.5;stroke-miterlimit:4;stroke-dasharray:none"
           inkscape:connector-curvature="0"
           id="path57"
           d="m 1634.8146,7.9649214 -9.3416,0 0,-12.9050966 11.9124,0 0,0.4963498 0,8.4379478 c 3.4114,-4.29570957 10.2013,-15.3953084 14.3941,-21.9882994 l 0,-17.22334 -14.5187,-0.04647 0,18.814822 -8.8097,0.09295 -7.4453,0 -8.4379,0 0,39.707989 8.4379,0 0.6453,0 c 3.6609,-4.35675 10.8248,-12.525399 13.1635,-15.3868456 z"
           class="st11"
           sodipodi:nodetypes="ccccccccccccccccc" />
        <path
           style="fill:#a42e8c;stroke:none;stroke-width:0.5;stroke-miterlimit:4;stroke-dasharray:none"
           inkscape:connector-curvature="0"
           id="path61"
           d="m 1631.4292,23.351767 c 0,0 0.3971,0.04964 0.943,0 l 0.05,0 1.7002,0 c 1.3402,-0.09927 3.1912,-3.277234 3.1912,-6.056793 l 0,6.127925 14.4633,-0.07113 0,-41.345944 c -5.0054,7.238345 -9.7113,14.1872231 -14.395,20.8042965 10e-4,1.2176554 -0.02,2.6122249 -0.059,5.1530647 -1.2691,0.02308 -2.4221,-0.03395 -3.604,-0.00149 -3.8598,5.3034838 -7.752,10.4192378 -12.0707,15.3902908 l 6.8,0 z"
           class="st12"
           sodipodi:nodetypes="cccccccccccccc" />
      </g>
      <g
         transform="matrix(1.1710234,0,0,1.1710234,-2630.2249,981.28893)"
         id="g7947">
        <path
           sodipodi:nodetypes="ccccccccccc"
           inkscape:connector-curvature="0"
           id="polygon65"
           d="m 1686.0277,-35.217517 -13.4015,0 0,42.7357235 38.219,-16.9751656 0,-1.9357649 -22.3358,0 0,-9.430647 29.2847,0 0,-14.394146 -29.2847,0 z"
           style="fill:#227fc4;stroke:none;stroke-width:0.5;stroke-miterlimit:4;stroke-dasharray:none" />
        <path
           sodipodi:nodetypes="ccccccc"
           inkscape:connector-curvature="0"
           id="polygon69"
           d="m 1688.5094,23.351767 0,-20.3503443 22.3358,0 0,-12.4583818 -38.219,16.9751656 0,15.8335605 z"
           style="fill:#00a1e9;stroke:none;stroke-width:0.5;stroke-miterlimit:4;stroke-dasharray:none" />
        <rect
           x="1729.7064"
           y="-4.4438229"
           class="st6"
           width="7.9415979"
           height="1.9853995"
           id="rect73"
           style="fill:none;stroke:none;stroke-width:0.5;stroke-miterlimit:4;stroke-dasharray:none" />
        <path
           sodipodi:nodetypes="cccccccccccccccccccccc"
           class="st5"
           d="m 1715.3123,23.351767 12.4088,0 1.9854,0 8.9343,0 5.4598,0 8.9343,0 0,-15.3868456 -14.3941,0 0,3.4744486 -8.9343,0 0,-3.9707985 7.9416,0 0,-2.4817493 14.3941,0 0,-10.1255374 -36.7299,-1.9853995 z m 14.3942,-28.7882921 10.9197,0 0,4.96349869 -10.9197,0 z"
           id="path75"
           inkscape:connector-curvature="0"
           style="fill:#90c31f;stroke:none;stroke-width:0.5;stroke-miterlimit:4;stroke-dasharray:none" />
        <path
           sodipodi:nodetypes="cccccccccccc"
           inkscape:connector-curvature="0"
           id="polygon79"
           d="m 1752.0422,-16.356222 -7.9416,0 -6.4525,0 -7.9416,0 -1.9854,0 -12.4088,0 -0.023,9.2986579 15.9837,1.6150083 9.3541,0.056291 -0.013,0.7799642 11.4287,1.4529848 z"
           style="fill:#16ae67;stroke:none;stroke-width:0.5;stroke-miterlimit:4;stroke-dasharray:none" />
        <path
           class="st6"
           d="m 1775.867,-4.4438254 -1.4891,0 c 0,0 -0.9927,0 -0.9927,1.4890496 0,0 0,0.9926998 0.9927,0.9926998 l 3.4745,0 12.2598,1.93576447 -1.1912,-1.19123967 -11.0686,-1.7372246 c 0,0 0,-1.4890496 -1.9854,-1.4890496 z"
           id="path83"
           inkscape:connector-curvature="0"
           style="fill:none;stroke:none;stroke-width:0.5;stroke-miterlimit:4;stroke-dasharray:none" />
        <path
           sodipodi:nodetypes="csccsccccccccsccsccccccccccc"
           class="st7"
           d="m 1777.8524,-0.96937628 -3.4745,0 c -0.9927,0 -0.9927,-1.98539952 -0.9927,-1.98539952 0,-1.4890496 0.9927,-2.4817493 0.9927,-2.4817493 l 1.4891,0 c 1.9854,0 1.9854,1.4890496 1.9854,1.4890496 l 11.019,1.7372245 -15.4365,-14.145971 -0.05,0 -0.05,0 -15.8336,0 0,21.839394 15.8832,2.4817494 3.4745,0 c 0.9927,0 0.9927,1.9853995 0.9927,1.9853995 0,1.4890491 -0.9927,2.4817491 -0.9927,2.4817491 l -1.4891,0 c -1.9854,0 -1.9854,-1.489049 -1.9854,-1.489049 l -15.8832,-2.4817498 0,14.8904958 14.3942,0 1.489,0 4.4672,0 2.9781,0 12.9051,0 0,-18.8612947 -3.6234,-3.57371908 z"
           id="path85"
           inkscape:connector-curvature="0"
           style="fill:#f35100;fill-opacity:1;stroke:none;stroke-width:0.5;stroke-miterlimit:4;stroke-dasharray:none" />
        <polygon
           transform="matrix(0.49634987,0,0,0.49634987,1362.9039,-246.16621)"
           class="st2"
           points="860.7,497.9 868,505 868,499 "
           id="polygon87"
           style="opacity:0.62000002;fill:#ff0000;stroke:none;stroke-width:0.5;stroke-miterlimit:4;stroke-dasharray:none" />
        <polygon
           transform="matrix(0.49634987,0,0,0.49634987,1362.9039,-246.16621)"
           class="st0"
           points="860.7,497.9 868,505 868,499 "
           id="polygon89"
           style="fill:#ffe000;fill-opacity:1;stroke:none;stroke-width:0.5;stroke-miterlimit:4;stroke-dasharray:none" />
        <path
           sodipodi:nodetypes="ccccccc"
           inkscape:connector-curvature="0"
           id="polygon93"
           d="m 1777.8669,-16.347506 -4.4175,0 14.2288,13.9556307 6.0719,0.9348651 0,-14.8904958 -12.9051,0 z"
           style="fill:#ffe000;fill-opacity:1;stroke:none;stroke-width:0.5;stroke-miterlimit:4;stroke-dasharray:none" />
        <g
           id="g7139"
           transform="matrix(0.49634987,0,0,0.49634987,1364.8893,-76.380904)">
          <path
             style="fill:#00c9e2;stroke:none;stroke-width:0.5;stroke-miterlimit:4;stroke-dasharray:none"
             d="m 943,169.9322 -26,4.6 0,-25.6 16.2,0 -43.15,-53.25 -5.05,-5.75 0,31 -13,0 0,28 13,0 0,38 0,14 0,9 63,-8 z"
             id="polygon97"
             inkscape:connector-curvature="0"
             sodipodi:nodetypes="ccccccccccccccc" />
          <path
             style="fill:#ed1e79;stroke:none;stroke-width:0.5;stroke-miterlimit:4;stroke-dasharray:none"
             d="m 933.2,148.9322 10.8,0 0,-28 -27,0 0,-31 -31.93728,0.0878 z"
             id="polygon101"
             inkscape:connector-curvature="0"
             sodipodi:nodetypes="ccccccc" />
        </g>
      </g>
    </g>
  </g>
</svg>
